<svg fill="#fff" xmlns:x="http://ns.adobe.com/Extensibility/1.0/" xmlns:i="http://ns.adobe.com/AdobeIllustrator/10.0/" xmlns:graph="http://ns.adobe.com/Graphs/1.0/" xmlns="http://www.w3.org/2000/svg" xmlns:xlink="http://www.w3.org/1999/xlink" version="1.1" x="0px" y="0px" viewBox="0 0 100 125" enable-background="new 0 0 100 100" xml:space="preserve"><metadata><sfw xmlns="http://ns.adobe.com/SaveForWeb/1.0/"><slices/><sliceSourceBounds width="1449.1" height="1429.6" y="-1445.1" x="0.4" bottomLeftOrigin="true"/></sfw></metadata><path d="M63.1,7.5C63.1,6.1,62,5,60.6,5H39.4c-1.4,0-2.5,1.1-2.5,2.5v8.1H6.1c-1.4,0-2.5,1.1-2.5,2.5v64.1c0,1.4,1.1,2.5,2.5,2.5  h15.2l-5.5,5.5c-1,1-1,2.6,0,3.5c0.5,0.5,1.1,0.7,1.8,0.7s1.3-0.2,1.8-0.7l9.8-9.8c1-1,1-2.6,0-3.5l-9.8-9.8c-1-1-2.6-1-3.5,0  c-1,1-1,2.6,0,3.5l5.5,5.5H8.6V20.6h28.3v8.1c0,1.4,1.1,2.5,2.5,2.5h21.3c1.4,0,2.5-1.1,2.5-2.5V7.5z M58.1,26.2H41.9V10h16.3V26.2z   M60.6,36.9H39.4c-1.4,0-2.5,1.1-2.5,2.5v21.3c0,1.4,1.1,2.5,2.5,2.5h21.3c1.4,0,2.5-1.1,2.5-2.5V39.4C63.1,38,62,36.9,60.6,36.9z   M58.1,58.1H41.9V41.9h16.3V58.1z M93.9,15.2H78.7l5.5-5.5c1-1,1-2.6,0-3.5c-1-1-2.6-1-3.5,0L70.9,16c-0.5,0.5-0.7,1.1-0.7,1.8  s0.3,1.3,0.7,1.8l9.8,9.8c0.5,0.5,1.1,0.7,1.8,0.7s1.3-0.2,1.8-0.7c1-1,1-2.6,0-3.5l-5.5-5.5h12.7v59.1H63.1v-8.1  c0-1.4-1.1-2.5-2.5-2.5H39.4c-1.4,0-2.5,1.1-2.5,2.5v21.3c0,1.4,1.1,2.5,2.5,2.5h21.3c1.4,0,2.5-1.1,2.5-2.5v-8.1h30.8  c1.4,0,2.5-1.1,2.5-2.5V17.7C96.4,16.4,95.3,15.2,93.9,15.2z M58.1,90H41.9V73.8h16.3V90z"/></svg>