<!DOCTYPE svg PUBLIC "-//W3C//DTD SVG 1.1//EN" "http://www.w3.org/Graphics/SVG/1.1/DTD/svg11.dtd">
<!-- Uploaded to: SVG Repo, www.svgrepo.com, Transformed by: SVG Repo Mixer Tools -->
<svg fill="#ffffff" width="64px" height="64px" viewBox="-2.2 -2.2 26.40 26.40" xmlns="http://www.w3.org/2000/svg" id="memory-arrow-right-bold" stroke="#ffffff">
<g id="SVGRepo_bgCarrier" stroke-width="0"/>
<g id="SVGRepo_tracerCarrier" stroke-linecap="round" stroke-linejoin="round"/>
<g id="SVGRepo_iconCarrier">
<path d="M10 2H12V3H13V4H14V5H15V6H16V7H17V8H18V9H19V10H20V12H19V13H18V14H17V15H16V16H15V17H14V18H13V19H12V20H10V15H2V7H10V2M12 6V9H4V13H12V16H13V15H14V14H15V13H16V12H17V10H16V9H15V8H14V7H13V6H12Z"/>
</g>
</svg>