<svg xmlns="http://www.w3.org/2000/svg" width="500" height="500" version="1.0" viewBox="0 0 500 500"><defs><linearGradient id="a" x1="0%" x2="0%" y1="0%" y2="100%"><stop offset="0%" style="stop-color:#dfe9f3"/><stop offset="100%" style="stop-color:#fff"/></linearGradient></defs><path fill="rgba(0,0,0,0)" stroke="#fff" stroke-width="12" d="m56,144.5v100.5h82.8l6.3-10.4,6.3-10.4,2.4,1.9c4.2,3.3,15.3,1.8,20.3-2.7,3.3-3,2.1-.5-4.6,9.1-3.6,5.1-6.5,9.5-6.5,9.8s6,.7,13.3.9c15.1.5,19.6,1.9,31,9.5,10.8,7.2,19.9,19.6,23.9,32.8,3,9.5,3,25.3.1,34.2-3.3,9.9-9.1,19.2-16.7,26.8-8.2,8.2-16.2,12.7-27.2,15.5-29.8,7.7-61.6-9.6-72.1-39.1-2.1-5.8-2.8-9.7-3.1-18.4-.2-6.1,0-12.9.6-15.3l1-4.2-28.7.2-28.6.3v162l69-.4c38-.2,69.3-.5,69.7-.7.9-.5,18.4-31.9,31.3-55.9,5.9-11,12.3-22.1,14.2-24.7,7.9-10.8,19.9-19.3,35.7-25.2,10.1-3.8,16.2-7.7,25.1-16.2,11.9-11.3,17.5-14.8,23.8-14.9,4.7,0,5.2.2,6.1,2.7,2.4,6.8-5.5,17.5-25.1,34.3-6.1,5.2-12.7,11.4-14.6,13.7-4.3,5.5-7.7,11.5-7.7,13.6.1,1.8,1.7.2,8.7-8.6,3.2-3.9,3.4-4,11.5-4.7,11.5-.9,19.2-2.3,25.5-4.6,10.6-4,21.8-17.5,26.7-32.1,1.4-4.2,3.4-14.3,4.6-23.4,1.1-8.9,2.6-18.2,3.4-20.8,3-10,9.7-17.6,15.6-17.6h2.3l-.7,11.7c-.4,6.5-1.3,23.5-2,37.9l-1.2,26.1-10.6,16.4c-15.8,24.2-20.5,30.7-23.8,32.4-3.6,1.9-13,4.8-38.5,12-27.8,7.9-36.7,12.7-46.6,25.1-4.4,5.6-11.9,19.9-11.9,22.9s33.7,1,99,1h99v-190.6l-48.2.5c-26.6.4-54.5.9-62.1,1.2-10.6.4-15.1.2-20-1.1-31.7-7.9-51.9-38.7-46.3-70.5,2.2-12.2,8.5-24.6,16.8-32.8,7.4-7.2,8.8-8.3,16.5-12.1,8.4-4.2,16.8-6.1,26.9-6.1,21.4,0,39.5,9.7,51.8,27.8,9.9,14.5,12.9,33.4,8,50.9l-.6,2.3h57.2V44h-134.5l-7.4,12.7c-4.1,7.1-10,17.1-13.1,22.3-19.7,32.8-27.1,46.5-33.6,62-4.8,11.2-14.3,20.4-30.1,28.9-11.8,6.3-19.8,13.4-30.2,27-9.7,12.6-19.1,20.9-28.1,25-5.3,2.4-11.3,2.7-12.9.7-1.5-1.7-1-2.8,5.3-11.9,2.4-3.4,7.4-11.4,11.1-17.7s9.2-15.3,12.3-20c3-4.7,9.9-16.2,15.4-25.5,5.5-9.4,15.4-26.2,22.1-37.5,6.6-11.3,16.2-27.7,21.2-36.5,5.1-8.8,10.9-18.7,12.9-22s3.6-6.3,3.6-6.8-45.7-.7-101.5-.7H56v100.5Zm158,42.2c-8.7,8.9-13.1,14.5-24.3,31.5-11.7,17.7-14.1,20.8-16.2,20.8s-2.5-.2-2.5-.5c0-1.3,13.3-20.5,17.3-25,2.5-2.8,7.1-8.4,10.3-12.5,3.1-4.1,7.1-9,8.8-10.9,3.4-3.7,15.6-14.1,16.6-14.1s-4.1,4.8-10,10.7h0Zm151.7,74.8c.3.9-.9,5-2.6,9.1-3.1,7.3-3.6,10.2-6.9,36-.6,4.5-2,10.7-3.1,13.7-3.9,11.3-14,25-21.9,29.9-3,1.9-14.1,5.2-14.9,4.4-.2-.1,2.9-2.5,6.9-5.1,11.2-7.7,17.8-18,20.7-32.5.6-3,1.7-11.5,2.6-18.8,2.5-22.3,5.5-31.8,11.2-36.1,3.3-2.4,7.1-2.7,8-.6h0Zm-18.7,7.4c0,.6-.7,3.8-1.5,7.3s-2.1,12.5-3,20.1c-2.5,22-6.9,34.6-15.1,43.7-3.8,4.2-20.8,15.4-22.5,14.8-.6-.2,2.3-3,6.5-6.2,9.2-7.1,16.3-14.7,18.8-20.3,2.7-6.1,3.7-12.9,2.6-17.1-1.2-4.3.5-24,2.8-32.1,1.7-5.9,6-11.1,9.3-11.1s2.1.4,2.1.9h0Z M 173 276.4 A 27 27 0 1 1 173 330.4 A 27 27 0 1 1 173 276.4 M 329.8 170 A 27 27 0 1 1 329.8 224 A 27 27 0 1 1 329.8 170" /></svg>