<?xml version="1.0" standalone="no"?>
<!DOCTYPE svg PUBLIC "-//W3C//DTD SVG 20010904//EN"
 "http://www.w3.org/TR/2001/REC-SVG-20010904/DTD/svg10.dtd">
<svg version="1.0" xmlns="http://www.w3.org/2000/svg"
 width="500.000000pt" height="500.000000pt" viewBox="0 0 500.000000 500.000000"
 preserveAspectRatio="xMidYMid meet">

<defs>
    <linearGradient id="gradient" x1="0%" y1="0%" x2="0%" y2="100%">
        <stop offset="0%" style="stop-color:#dfe9f3;"/>
        <stop offset="100%" style="stop-color:#ffffff;"/>
    </linearGradient>
</defs>

<g transform="translate(0.000000,500.000000) scale(0.100000,-0.100000)"
fill="url(#gradient)" stroke="none">
<path d="M560 3555 l0 -1005 414 0 414 0 63 104 63 104 24 -19 c42 -33 153
-18 203 27 33 30 21 5 -46 -91 -36 -51 -65 -95 -65 -98 0 -2 60 -7 133 -9 151
-5 196 -19 310 -95 108 -72 199 -196 239 -328 30 -95 30 -253 1 -342 -33 -99
-91 -192 -167 -268 -82 -82 -162 -127 -272 -155 -298 -77 -616 96 -721 391
-21 58 -28 97 -31 184 -2 61 1 129 6 153 l10 42 -287 -2 -286 -3 0 -810 0
-810 690 4 c380 2 693 5 697 7 9 5 184 319 313 559 59 110 123 221 142 247 79
108 199 193 357 252 101 38 162 77 251 162 119 113 175 148 238 149 47 0 52
-2 61 -27 24 -68 -55 -175 -251 -343 -61 -52 -127 -114 -146 -137 -43 -55 -77
-115 -77 -136 1 -18 17 -2 87 86 32 39 34 40 115 47 115 9 192 23 255 46 106
40 218 175 267 321 14 42 34 143 46 234 11 89 26 182 34 208 30 100 97 176
156 176 l23 0 -7 -117 c-4 -65 -13 -235 -20 -379 l-12 -261 -106 -164 c-158
-242 -205 -307 -238 -324 -36 -19 -130 -48 -385 -120 -278 -79 -367 -127 -466
-251 -44 -56 -119 -199 -119 -229 0 -7 337 -10 990 -10 l990 0 0 953 0 953
-482 -5 c-266 -4 -545 -9 -621 -12 -106 -4 -151 -2 -200 11 -317 79 -519 387
-463 705 22 122 85 246 168 328 74 72 88 83 165 121 84 42 168 61 269 61 214
0 395 -97 518 -278 99 -145 129 -334 80 -509 l-6 -23 286 0 286 0 0 865 0 865
-673 0 -672 0 -74 -127 c-41 -71 -100 -171 -131 -223 -197 -328 -271 -465
-336 -620 -48 -112 -143 -204 -301 -289 -118 -63 -198 -134 -302 -270 -97
-126 -191 -209 -281 -250 -53 -24 -113 -27 -129 -7 -15 17 -10 28 53 119 24
34 74 114 111 177 37 63 92 153 123 200 30 47 99 162 154 255 55 94 154 262
221 375 66 113 162 277 212 365 51 88 109 187 129 220 20 33 36 63 36 68 0 4
-457 7 -1015 7 l-1015 0 0 -1005z m1580 -422 c-87 -89 -131 -145 -243 -315
-117 -177 -141 -208 -162 -208 -14 0 -25 2 -25 5 0 13 133 205 173 250 25 28
71 84 103 125 31 41 71 90 88 109 34 37 156 141 166 141 4 0 -41 -48 -100
-107z m1517 -748 c3 -9 -9 -50 -26 -91 -31 -73 -36 -102 -69 -360 -6 -45 -20
-107 -31 -137 -39 -113 -140 -250 -219 -299 -30 -19 -141 -52 -149 -44 -2 1
29 25 69 51 112 77 178 180 207 325 6 30 17 115 26 188 25 223 55 318 112 361
33 24 71 27 80 6z m-187 -74 c0 -6 -7 -38 -15 -73 -8 -35 -21 -125 -30 -201
-25 -220 -69 -346 -151 -437 -38 -42 -208 -154 -225 -148 -6 2 23 30 65 62 92
71 163 147 188 203 27 61 37 129 26 171 -12 43 5 240 28 321 17 59 60 111 93
111 12 0 21 -4 21 -9z"/>
</g>
</svg>
