<?xml version="1.0" encoding="utf-8"?><!-- Uploaded to: SVG Repo, www.svgrepo.com, Generator: SVG Repo Mixer Tools -->
<svg width="800px" height="800px" viewBox="0 0 395 415" fill="none" xmlns="http://www.w3.org/2000/svg">
<path d="M5,106v100.5h82.8l6.3-10.4l6.3-10.4l2.4,1.9c4.2,3.3,15.3,1.8,20.3-2.7c3.3-3,2.1-0.5-4.6,9.1
	c-3.6,5.1-6.5,9.5-6.5,9.8s6,0.7,13.3,0.9c15.1,0.5,19.6,1.9,31,9.5c10.8,7.2,19.9,19.6,23.9,32.8c3,9.5,3,25.3,0.1,34.2
	c-3.3,9.9-9.1,19.2-16.7,26.8c-8.2,8.2-16.2,12.7-27.2,15.5c-29.8,7.7-61.6-9.6-72.1-39.1c-2.1-5.8-2.8-9.7-3.1-18.4
	c-0.2-6.1,0-12.9,0.6-15.3l1-4.2l-28.7,0.2L5.5,247v162l69-0.4c38-0.2,69.3-0.5,69.7-0.7c0.9-0.5,18.4-31.9,31.3-55.9
	c5.9-11,12.3-22.1,14.2-24.7c7.9-10.8,19.9-19.3,35.7-25.2c10.1-3.8,16.2-7.7,25.1-16.2c11.9-11.3,17.5-14.8,23.8-14.9
	c4.7,0,5.2,0.2,6.1,2.7c2.4,6.8-5.5,17.5-25.1,34.3c-6.1,5.2-12.7,11.4-14.6,13.7c-4.3,5.5-7.7,11.5-7.7,13.6
	c0.1,1.8,1.7,0.2,8.7-8.6c3.2-3.9,3.4-4,11.5-4.7c11.5-0.9,19.2-2.3,25.5-4.6c10.6-4,21.8-17.5,26.7-32.1c1.4-4.2,3.4-14.3,4.6-23.4
	c1.1-8.9,2.6-18.2,3.4-20.8c3-10,9.7-17.6,15.6-17.6h2.3l-0.7,11.7c-0.4,6.5-1.3,23.5-2,37.9l-1.2,26.1l-10.6,16.4
	C301,339.8,296.3,346.3,293,348c-3.6,1.9-13,4.8-38.5,12c-27.8,7.9-36.7,12.7-46.6,25.1C203.5,390.7,196,405,196,408s33.7,1,99,1h99
	V218.4l-48.2,0.5c-26.6,0.4-54.5,0.9-62.1,1.2c-10.6,0.4-15.1,0.2-20-1.1c-31.7-7.9-51.9-38.7-46.3-70.5
	c2.2-12.2,8.5-24.6,16.8-32.8c7.4-7.2,8.8-8.3,16.5-12.1c8.4-4.2,16.8-6.1,26.9-6.1c21.4,0,39.5,9.7,51.8,27.8
	c9.9,14.5,12.9,33.4,8,50.9l-0.6,2.3H394V5.5H259.5l-7.4,12.7c-4.1,7.1-10,17.1-13.1,22.3c-19.7,32.8-27.1,46.5-33.6,62
	c-4.8,11.2-14.3,20.4-30.1,28.9c-11.8,6.3-19.8,13.4-30.2,27c-9.7,12.6-19.1,20.9-28.1,25c-5.3,2.4-11.3,2.7-12.9,0.7
	c-1.5-1.7-1-2.8,5.3-11.9c2.4-3.4,7.4-11.4,11.1-17.7s9.2-15.3,12.3-20c3-4.7,9.9-16.2,15.4-25.5c5.5-9.4,15.4-26.2,22.1-37.5
	c6.6-11.3,16.2-27.7,21.2-36.5c5.1-8.8,10.9-18.7,12.9-22s3.6-6.3,3.6-6.8s-45.7-0.7-101.5-0.7H5V106z M163,148.2
	c-8.7,8.9-13.1,14.5-24.3,31.5c-11.7,17.7-14.1,20.8-16.2,20.8s-2.5-0.2-2.5-0.5c0-1.3,13.3-20.5,17.3-25c2.5-2.8,7.1-8.4,10.3-12.5
	c3.1-4.1,7.1-9,8.8-10.9c3.4-3.7,15.6-14.1,16.6-14.1S168.9,142.3,163,148.2L163,148.2L163,148.2z M314.7,223c0.3,0.9-0.9,5-2.6,9.1
	c-3.1,7.3-3.6,10.2-6.9,36c-0.6,4.5-2,10.7-3.1,13.7c-3.9,11.3-14,25-21.9,29.9c-3,1.9-14.1,5.2-14.9,4.4c-0.2-0.1,2.9-2.5,6.9-5.1
	c11.2-7.7,17.8-18,20.7-32.5c0.6-3,1.7-11.5,2.6-18.8c2.5-22.3,5.5-31.8,11.2-36.1C310,221.2,313.8,220.9,314.7,223L314.7,223
	L314.7,223z M296,230.4c0,0.6-0.7,3.8-1.5,7.3s-2.1,12.5-3,20.1c-2.5,22-6.9,34.6-15.1,43.7c-3.8,4.2-20.8,15.4-22.5,14.8
	c-0.6-0.2,2.3-3,6.5-6.2c9.2-7.1,16.3-14.7,18.8-20.3c2.7-6.1,3.7-12.9,2.6-17.1c-1.2-4.3,0.5-24,2.8-32.1c1.7-5.9,6-11.1,9.3-11.1
	S296,229.9,296,230.4L296,230.4L296,230.4z" stroke="#fff" stroke-width="3"/>
	<circle cx="122" cy="264.9" r="27" stroke="#fff" stroke-width="3"/>
	<circle cx="278.8" cy="158.5" r="27" stroke="#fff" stroke-width="3"/>
</svg>



