<?xml version="1.0" encoding="UTF-8"?><svg id="a" xmlns="http://www.w3.org/2000/svg" width="800px" height="800px" viewBox="-3 0 50 62.7" ><g id="b"><circle cx="23.3" cy="12.7" r="10.7" fill="none" stroke="#0247ad" stroke-miterlimit="10.7" stroke-width="4"/><path d="m21.8,55.3c-19.8-.3-19.8-5.5-19.8-12s9.6-12,21.3-12,5.5,0,8.2.8" fill="none" isolation="isolate" opacity=".5" stroke="#0247ad" stroke-linecap="round" stroke-miterlimit="10.7" stroke-width="4"/></g><text transform="translate(951.3 536.7)" font-family="MyriadPro-Regular, &apos;Myriad Pro&apos;" font-size="12"><tspan x="0" y="0" letter-spacing="0em">h</tspan><tspan x="6.6" y="0">ttps://</tspan><tspan x="36.9" y="0" letter-spacing="0em">ww</tspan><tspan x="54.8" y="0" letter-spacing="0em">w</tspan><tspan x="63.2" y="0">.po</tspan><tspan x="79.1" y="0" letter-spacing="0em">r</tspan><tspan x="83" y="0">nhu</tspan><tspan x="103" y="0" letter-spacing="0em">b</tspan><tspan x="109.5" y="0" letter-spacing="0em">.</tspan><tspan x="112" y="0" letter-spacing="0em">c</tspan><tspan x="117.3" y="0">om/view_vide</tspan><tspan x="188.8" y="0" letter-spacing="0em">o</tspan><tspan x="195.1" y="0" letter-spacing="0em">.php?viewkey=ph633e5e6e91d71</tspan></text><g id="c"><circle cx="38.7" cy="47.6" r="3.9" fill="none" stroke="#0247ad" stroke-miterlimit="10.7" stroke-width="4"/><path d="m41,34.7c-.5-.2-1.1-.2-2.3-.2s-1.8,0-2.3.2c-.6.3-1.2.8-1.4,1.4-.1.3-.2.6-.2,1.1,0,.7-.4,1.4-1,1.8-.6.4-1.4.4-2.1,0-.4-.2-.8-.4-1.1-.4-.7,0-1.4,0-1.9.5-.4.3-.7.8-1.3,1.9-.6,1.1-.9,1.6-1,2.1,0,.7,0,1.4.5,1.9.2.3.5.5.9.7.6.4,1,1.1,1,1.8s-.4,1.4-1,1.8c-.4.3-.7.5-.9.7-.4.6-.6,1.2-.5,1.9,0,.5.4,1,1,2.1.6,1.1.9,1.6,1.3,1.9.6.4,1.2.6,1.9.5.3,0,.6-.2,1.1-.4.6-.3,1.4-.4,2.1,0,.6.4,1,1,1,1.8,0,.5,0,.8.2,1.1.3.6.8,1.2,1.4,1.4.5.2,1.1.2,2.3.2s1.8,0,2.3-.2c.6-.3,1.2-.8,1.4-1.4.1-.3.2-.6.2-1.1,0-.7.4-1.4,1-1.8.6-.4,1.4-.4,2.1,0,.4.2.8.4,1.1.4.7,0,1.4,0,1.9-.5.4-.3.7-.8,1.3-1.9.6-1.1.9-1.6,1-2.1,0-.7,0-1.4-.5-1.9-.2-.3-.5-.5-.9-.7-.6-.4-1-1.1-1-1.8s.4-1.4,1-1.8c.4-.3.7-.5.9-.7.4-.6.6-1.2.5-1.9,0-.5-.4-1-1-2.1-.6-1.1-.9-1.6-1.3-1.9-.6-.4-1.2-.6-1.9-.5-.3,0-.6.2-1.1.4-.6.3-1.4.4-2.1,0-.6-.4-1-1-1-1.8,0-.5,0-.8-.2-1.1-.3-.6-.8-1.2-1.4-1.4Z" fill="none" isolation="isolate" opacity=".5" stroke="#0247ad" stroke-miterlimit="10.7" stroke-width="4"/></g></svg>